<?xml version="1.0" encoding="utf-8"?>
<!-- Generator: Adobe Illustrator 26.3.1, SVG Export Plug-In . SVG Version: 6.00 Build 0)  -->
<svg version="1.1" id="Capa_1" xmlns="http://www.w3.org/2000/svg" xmlns:xlink="http://www.w3.org/1999/xlink" x="0px" y="0px"
	 viewBox="0 0 512 512" style="enable-background:new 0 0 512 512;" xml:space="preserve">
<style type="text/css">
	.st0{fill:#FFFFFF;}
</style>
<path class="st0" d="M256,224c-79.4,0-191.1,122.7-191.1,200.2C64,459.1,90.8,480,135.8,480c48.8,0,81.1-25.1,120.2-25.1
	c39.5,0,71.9,25.1,120.2,25.1c44.1,0,71.7-20.9,71.7-55.8C447.1,346.8,335.4,224,256,224z M108.8,211.4
	c-10.4-34.6-42.5-57.1-71.6-50.1S-7.1,202,3.3,236.6c10.4,34.7,42.5,57.2,71.6,50.2S119.1,246,108.8,211.4z M193.5,190.6
	c30.9-8.1,46.4-49.1,34.5-93.4s-46.5-71.1-77.5-63.9c-30.9,8.1-46.4,49.1-34.5,93.4C127.9,170.1,162.5,198.8,193.5,190.6z
	 M474.9,161.3c-29.1-6.1-61.2,15.5-71.6,50.1c-10.4,34.6,4.8,68.4,33.9,75.4c29.1,6.1,61.1-15.5,71.6-50.1
	C519.1,202,503.1,168.3,474.9,161.3z M318.5,190.6c30.1,8.1,65.6-20.5,77.5-63.9s-3.6-85.2-34.5-93.4c-30.1-8.1-65.6,20.5-77.5,63.9
	C272.1,140.6,287.6,182.5,318.5,190.6z"/>
</svg>
